
<svg width="48" height="48" viewBox="0 0 48 48" fill="none" xmlns="http://www.w3.org/2000/svg">
  <rect width="48" height="48" rx="8" fill="#2775C9"/>
  <path d="M24 10C16.268 10 10 16.268 10 24C10 31.732 16.268 38 24 38C31.732 38 38 31.732 38 24C38 16.268 31.732 10 24 10ZM24 14C27.866 14 31 17.134 31 21C31 24.866 27.866 28 24 28C20.134 28 17 24.866 17 21C17 17.134 20.134 14 24 14ZM24 36C19.188 36 14.978 33.134 13 28.9C15.018 26.134 19.188 24 24 24C28.812 24 32.982 26.134 35 28.9C33.022 33.134 28.812 36 24 36Z" fill="white"/>
</svg>
